<svg xmlns="http://www.w3.org/2000/svg" width="17" height="32" viewBox="0 0 17 32" fill="none">
  <path d="M15.438 30.5116V6.86729C15.4379 6.6139 15.3582 6.36696 15.2101 6.16138C15.0619 5.9558 14.8529 5.80198 14.6126 5.72168L2.54512 1.69918C2.36367 1.63837 2.17035 1.62165 1.98115 1.65039C1.79195 1.67914 1.61232 1.75253 1.45712 1.86449C1.30192 1.97644 1.17561 2.12375 1.08865 2.29422C1.00168 2.46469 0.95657 2.65342 0.957035 2.84479V30.5116" stroke="#A0A3BD" stroke-width="1.6" stroke-linecap="round" stroke-linejoin="round"/>
  <path d="M10.6094 22.8906V24.0974" stroke="#A0A3BD" stroke-width="1.6" stroke-linecap="round" stroke-linejoin="round"/>
  <path d="M10.6094 16.8594V18.0661" stroke="#A0A3BD" stroke-width="1.6" stroke-linecap="round" stroke-linejoin="round"/>
  <path d="M10.6094 10.8242V12.031" stroke="#A0A3BD" stroke-width="1.6" stroke-linecap="round" stroke-linejoin="round"/>
  <path d="M5.78516 22.8906V24.0974" stroke="#A0A3BD" stroke-width="1.6" stroke-linecap="round" stroke-linejoin="round"/>
  <path d="M5.78516 16.8594V18.0661" stroke="#A0A3BD" stroke-width="1.6" stroke-linecap="round" stroke-linejoin="round"/>
  <path d="M5.78516 10.8242V12.031" stroke="#A0A3BD" stroke-width="1.6" stroke-linecap="round" stroke-linejoin="round"/>
</svg>