<svg xmlns="http://www.w3.org/2000/svg" width="36" height="29" viewBox="0 0 36 29" fill="none">
  <path d="M35.2569 12.7669C35.2506 11.6697 34.9064 10.601 34.2711 9.7064C33.6359 8.81176 32.7404 8.13458 31.7065 7.76702C31.5048 7.69408 31.2884 7.67085 31.0758 7.69927C30.8632 7.7277 30.6606 7.80695 30.4851 7.93031C30.3096 8.05367 30.1664 8.21751 30.0677 8.40796C29.969 8.5984 29.9176 8.80983 29.918 9.02433L29.9367 19.2323C29.9372 19.4464 29.9892 19.6572 30.0883 19.8469C30.1873 20.0367 30.3306 20.1998 30.506 20.3226C30.6813 20.4453 30.8836 20.5241 31.0958 20.5522C31.308 20.5804 31.5239 20.5571 31.7252 20.4843C32.7611 20.1117 33.6565 19.4279 34.2887 18.5266C34.921 17.6253 35.2591 16.5506 35.2569 15.4497V12.7669Z" fill="#4A3AFF"/>
  <path d="M28.7932 1.36939C28.7932 1.03936 28.6621 0.722841 28.4287 0.489473C28.1953 0.256105 27.8788 0.125 27.5488 0.125C27.2188 0.125 26.9022 0.256105 26.6689 0.489473C26.4355 0.722841 26.3044 1.03936 26.3044 1.36939V2.33255L3.71376 9.62591C3.58858 9.66644 3.47948 9.7456 3.40212 9.85203C3.32475 9.95845 3.28312 10.0867 3.2832 10.2182V17.6311C3.2832 17.7635 3.32543 17.8924 3.40376 17.9992C3.48209 18.1059 3.59243 18.1849 3.71874 18.2246L5.33645 18.7324C5.46275 18.7721 5.5731 18.8511 5.65143 18.9578C5.72976 19.0646 5.77199 19.1935 5.77198 19.3259V22.5501C5.7802 24.0305 6.37359 25.4474 7.42269 26.4919C8.47178 27.5363 9.89139 28.1234 11.3717 28.125H11.3979C12.8816 28.1164 14.3015 27.52 15.3463 26.4664C16.391 25.4127 16.9755 23.9879 16.9715 22.5041V22.3797L26.3044 25.304V26.2572C26.3044 26.5872 26.4355 26.9037 26.6689 27.1371C26.9022 27.3705 27.2188 27.5016 27.5488 27.5016C27.8788 27.5016 28.1953 27.3705 28.4287 27.1371C28.6621 26.9037 28.7932 26.5872 28.7932 26.2572V1.36939ZM14.4827 22.5103C14.4847 22.9189 14.4061 23.3238 14.2516 23.702C14.0971 24.0802 13.8696 24.4242 13.5821 24.7145C13.2946 25.0048 12.9527 25.2356 12.5761 25.3937C12.1994 25.5519 11.7952 25.6343 11.3867 25.6362H11.3717C10.5501 25.6362 9.7618 25.3112 9.17895 24.7321C8.5961 24.153 8.26602 23.3668 8.26076 22.5452V20.4956C8.26075 20.398 8.28375 20.3016 8.3279 20.2145C8.37204 20.1273 8.43608 20.0518 8.51484 19.994C8.59361 19.9362 8.68487 19.8978 8.78125 19.8818C8.87763 19.8658 8.97642 19.8728 9.06961 19.9021L14.0472 21.4625C14.1735 21.5023 14.2838 21.5812 14.3622 21.688C14.4405 21.7947 14.4827 21.9237 14.4827 22.0561V22.5103Z" fill="#4A3AFF"/>
  <path d="M3.28206 9.64269C3.28206 9.30855 3.13715 8.9881 2.87921 8.75182C2.62127 8.51555 2.27143 8.38281 1.90665 8.38281C1.54187 8.38281 1.19203 8.51555 0.934096 8.75182C0.676158 8.9881 0.53125 9.30855 0.53125 9.64269L0.538127 18.4618C0.538127 18.6273 0.573703 18.7911 0.642823 18.944C0.711944 19.0968 0.813255 19.2357 0.940973 19.3527C1.06869 19.4697 1.22031 19.5625 1.38719 19.6258C1.55406 19.6891 1.73291 19.7217 1.91353 19.7217H1.90665C2.26578 19.7218 2.61071 19.5932 2.86772 19.3635C3.12473 19.1337 3.27344 18.821 3.28206 18.4921V9.64269Z" fill="white"/>
</svg>