<svg xmlns="http://www.w3.org/2000/svg" width="40" height="42" viewBox="0 0 40 42" fill="none">
  <circle cx="20.0267" cy="20.8822" r="8.78843" fill="white"/>
  <path fill-rule="evenodd" clip-rule="evenodd" d="M37.2849 24.3949C38.0245 24.7878 38.5951 25.4081 38.9966 26.0285C39.7785 27.3105 39.7151 28.8821 38.9544 30.2675L37.4751 32.749C36.6932 34.0724 35.2351 34.8995 33.7346 34.8995C32.995 34.8995 32.1708 34.6927 31.4946 34.2792C30.9452 33.9276 30.3112 33.8036 29.6349 33.8036C27.5428 33.8036 25.7888 35.5199 25.7254 37.567C25.7254 39.9451 23.7812 41.8061 21.351 41.8061H18.477C16.0256 41.8061 14.0814 39.9451 14.0814 37.567C14.0392 35.5199 12.2852 33.8036 10.193 33.8036C9.49567 33.8036 8.8617 33.9276 8.33338 34.2792C7.65714 34.6927 6.81184 34.8995 6.09334 34.8995C4.5718 34.8995 3.11366 34.0724 2.33175 32.749L0.873613 30.2675C0.09171 28.9234 0.049445 27.3105 0.831348 26.0285C1.16947 25.4081 1.80344 24.7878 2.52195 24.3949C3.11366 24.1054 3.49404 23.6298 3.85329 23.0714C4.90992 21.2931 4.27594 18.9564 2.47968 17.9018C0.387565 16.7232 -0.288675 14.097 0.915878 12.0498L2.33175 9.60977C3.55744 7.56261 6.17787 6.83886 8.29112 8.03821C10.1296 9.03078 12.5176 8.36907 13.5954 6.6114C13.9335 6.0324 14.1237 5.41205 14.0814 4.79169C14.0392 3.98523 14.2716 3.22013 14.6731 2.59978C15.455 1.31771 16.8709 0.490576 18.4136 0.449219H21.3933C22.9571 0.449219 24.373 1.31771 25.1549 2.59978C25.5352 3.22013 25.7888 3.98523 25.7254 4.79169C25.6832 5.41205 25.8734 6.0324 26.2115 6.6114C27.2892 8.36907 29.6772 9.03078 31.5369 8.03821C33.629 6.83886 36.2705 7.56261 37.4751 9.60977L38.891 12.0498C40.1167 14.097 39.4404 16.7232 37.3272 17.9018C35.5309 18.9564 34.8969 21.2931 35.9747 23.0714C36.3128 23.6298 36.6932 24.1054 37.2849 24.3949ZM13.9343 21.1479C13.9343 24.3944 16.6181 26.9792 19.9359 26.9792C23.2537 26.9792 25.8742 24.3944 25.8742 21.1479C25.8742 17.9013 23.2537 15.2959 19.9359 15.2959C16.6181 15.2959 13.9343 17.9013 13.9343 21.1479Z" fill="#4A3AFF"/>
</svg>