<svg xmlns="http://www.w3.org/2000/svg" width="39" height="33" viewBox="0 0 39 33" fill="none">
  <rect x="2.10742" y="2.38672" width="34.0457" height="28.1681" fill="white"/>
  <rect x="7.27539" y="10.8438" width="23.7094" height="5.66188" rx="0.680278" fill="#4A3AFF"/>
  <rect x="7.27539" y="19.2773" width="10.8407" height="7.31969" rx="0.680278" fill="#4A3AFF"/>
  <rect x="20.1445" y="19.2773" width="10.8407" height="2.30835" rx="0.680278" fill="#4A3AFF"/>
  <rect x="20.1445" y="24.2891" width="10.8407" height="2.30835" rx="0.680278" fill="#4A3AFF"/>
  <path d="M0.679688 28.2311C0.679688 29.4731 1.17307 30.6642 2.05128 31.5425C2.9295 32.4207 4.12062 32.9141 5.36261 32.9141H33.4602C34.7022 32.9141 35.8933 32.4207 36.7715 31.5425C37.6497 30.6642 38.1431 29.4731 38.1431 28.2311V5.59699C38.1431 4.355 37.6497 3.16388 36.7715 2.28566C35.8933 1.40744 34.7022 0.914063 33.4602 0.914062H5.36261C4.12062 0.914063 2.9295 1.40744 2.05128 2.28566C1.17307 3.16388 0.679688 4.355 0.679688 5.59699L0.679688 28.2311ZM23.3138 4.8165C23.3065 5.09374 23.2234 5.36369 23.0734 5.59699C22.9432 5.83325 22.752 6.03024 22.5197 6.16744C22.2875 6.30463 22.0226 6.377 21.7529 6.377C21.4831 6.377 21.2183 6.30463 20.986 6.16744C20.7537 6.03024 20.5625 5.83325 20.4323 5.59699C20.2823 5.36369 20.1992 5.09374 20.1919 4.8165C20.1989 4.53922 20.2821 4.26921 20.4323 4.03601C20.5625 3.79976 20.7537 3.60276 20.986 3.46557C21.2183 3.32837 21.4831 3.256 21.7529 3.256C22.0226 3.256 22.2875 3.32837 22.5197 3.46557C22.752 3.60276 22.9432 3.79976 23.0734 4.03601C23.2236 4.26921 23.3068 4.53922 23.3138 4.8165ZM28.7772 4.8165C28.77 5.09374 28.6868 5.36369 28.5369 5.59699C28.4066 5.83325 28.2154 6.03024 27.9831 6.16744C27.7509 6.30463 27.486 6.377 27.2163 6.377C26.9465 6.377 26.6817 6.30463 26.4494 6.16744C26.2171 6.03024 26.0259 5.83325 25.8957 5.59699C25.7457 5.36369 25.6626 5.09374 25.6553 4.8165C25.6623 4.53922 25.7455 4.26921 25.8957 4.03601C26.0259 3.79976 26.2171 3.60276 26.4494 3.46557C26.6817 3.32837 26.9465 3.256 27.2163 3.256C27.486 3.256 27.7509 3.32837 27.9831 3.46557C28.2154 3.60276 28.4066 3.79976 28.5369 4.03601C28.687 4.26921 28.7702 4.53922 28.7772 4.8165ZM34.2407 4.8165C34.2334 5.09374 34.1502 5.36369 34.0003 5.59699C33.8701 5.83325 33.6788 6.03024 33.4466 6.16744C33.2143 6.30463 32.9495 6.377 32.6797 6.377C32.4099 6.377 32.1451 6.30463 31.9128 6.16744C31.6805 6.03024 31.4893 5.83325 31.3591 5.59699C31.2091 5.36369 31.126 5.09374 31.1187 4.8165C31.1258 4.53922 31.2089 4.26921 31.3591 4.03601C31.4914 3.80149 31.6831 3.6059 31.9149 3.46891C32.1467 3.33191 32.4104 3.25832 32.6797 3.25553C32.9796 3.25689 33.2728 3.34462 33.5241 3.50822C33.7755 3.67183 33.9744 3.90438 34.0971 4.17806C34.1901 4.37814 34.2391 4.59586 34.2407 4.8165ZM3.80164 9.10762C3.80164 9.00412 3.84275 8.90486 3.91594 8.83168C3.98912 8.75849 4.08838 8.71738 4.19188 8.71738H34.6309C34.7344 8.71738 34.8337 8.75849 34.9068 8.83168C34.98 8.90486 35.0211 9.00412 35.0211 9.10762V28.2296C35.0211 28.6436 34.8567 29.0406 34.564 29.3334C34.2712 29.6261 33.8742 29.7906 33.4602 29.7906H5.36261C4.94862 29.7906 4.55158 29.6261 4.25884 29.3334C3.9661 29.0406 3.80164 28.6436 3.80164 28.2296V9.10762Z" fill="#4A3AFF"/>
</svg>